<svg width="54" height="53" viewBox="0 0 54 53" fill="none" xmlns="http://www.w3.org/2000/svg">
<path d="M18.1863 3.04208C19.4973 4.23792 20.248 5.81084 20.3855 7.56985C20.4435 9.42359 19.8691 11.1313 18.6553 12.5477C17.9903 13.2259 17.2117 13.7868 16.3344 14.1537C16.2325 14.1537 16.1307 14.1537 16.0257 14.1537C16.2907 14.7472 16.5573 15.34 16.8254 15.9321C16.905 16.1081 16.9842 16.2843 17.0631 16.4607C17.7058 17.8972 18.4855 19.1349 19.5238 20.3269C19.5844 20.3974 19.645 20.468 19.7075 20.5407C21.4684 22.4447 24.3096 23.6911 26.8831 23.847C27.2941 23.8584 27.7048 23.8642 28.116 23.8676C28.2666 23.8695 28.4172 23.8715 28.5679 23.8736C28.9604 23.8788 29.353 23.8829 29.7455 23.8868C30.1477 23.8909 30.5498 23.8962 30.952 23.9013C31.7381 23.9112 32.5243 23.9199 33.3105 23.9279C33.3237 23.865 33.3368 23.8022 33.3504 23.7375C33.3682 23.6547 33.386 23.5719 33.4043 23.4865C33.4217 23.4046 33.4391 23.3227 33.4571 23.2383C33.7141 22.2113 34.4254 21.3622 35.1624 20.6355C35.2279 20.5689 35.2935 20.5024 35.361 20.4338C36.5851 19.2706 38.2873 18.8186 39.9403 18.8453C41.8446 18.9188 43.3364 19.6901 44.6279 21.0471C45.902 22.4403 46.3606 24.0952 46.3026 25.9486C46.2006 27.8978 45.2791 29.3581 43.8711 30.6283C42.5261 31.7329 40.8005 32.2134 39.0734 32.0788C37.408 31.8942 36.0334 31.1907 34.8538 29.9981C34.7971 29.9449 34.7405 29.8917 34.6822 29.8369C34.2884 29.4327 34.0466 28.9469 33.7928 28.4484C33.7567 28.3779 33.7207 28.3074 33.6836 28.2348C33.65 28.1661 33.6164 28.0975 33.5818 28.0268C33.5518 27.9657 33.5217 27.9045 33.4908 27.8415C33.3907 27.5702 33.3516 27.2999 33.3105 27.0144C33.2416 27.0149 33.1727 27.0153 33.1017 27.0158C32.3738 27.0204 31.6459 27.0235 30.9179 27.0257C30.6476 27.0268 30.3772 27.0281 30.1068 27.0299C25.8133 27.0578 21.8782 26.4853 18.495 23.6192C18.4428 23.5751 18.3906 23.5309 18.3368 23.4855C17.1778 22.4947 16.2848 21.373 15.4084 20.1211C15.4084 26.1985 15.4084 32.276 15.4084 38.5376C15.8498 38.7074 16.2912 38.8771 16.7459 39.052C18.4629 39.9719 19.5698 41.2997 20.1411 43.1675C20.6226 44.7739 20.4165 46.6088 19.6524 48.0931C18.6377 49.7911 17.2602 50.9132 15.3389 51.4264C13.6232 51.8014 11.831 51.6118 10.3192 50.6697C8.74769 49.638 7.76127 48.2709 7.24828 46.4469C6.92097 44.6896 7.20778 42.8077 8.20641 41.3155C9.15605 39.938 10.4846 38.9455 12.1161 38.5376C12.1161 30.5928 12.1161 22.648 12.1161 14.4624C11.6747 14.2926 11.2333 14.1229 10.7785 13.948C9.20513 13.1139 8.054 11.8677 7.45607 10.1749C7.43206 10.0959 7.40805 10.0169 7.38332 9.93542C7.36038 9.86061 7.33743 9.78581 7.31379 9.70875C6.87136 7.939 7.19046 6.06314 8.09227 4.49655C9.1358 2.94477 10.5919 1.92176 12.4247 1.4988C14.5536 1.14981 16.5129 1.68422 18.1863 3.04208Z" fill="white"/>
</svg>
